<svg width="12" height="13" viewBox="0 0 12 13" fill="none" xmlns="http://www.w3.org/2000/svg">
<path d="M3.16596 6.46324H4.34196V7.63924H3.16596V6.46324ZM11.3979 2.93525V11.1672C11.3979 11.4791 11.274 11.7782 11.0535 11.9988C10.833 12.2193 10.5338 12.3432 10.2219 12.3432H1.98996C1.33728 12.3432 0.813965 11.814 0.813965 11.1672V2.93525C0.813965 2.62335 0.937864 2.32423 1.15841 2.10369C1.37895 1.88315 1.67807 1.75925 1.98996 1.75925H2.57796V0.583252H3.75396V1.75925H8.45795V0.583252H9.63394V1.75925H10.2219C10.5338 1.75925 10.833 1.88315 11.0535 2.10369C11.274 2.32423 11.3979 2.62335 11.3979 2.93525ZM1.98996 4.11124H10.2219V2.93525H1.98996V4.11124ZM10.2219 11.1672V5.28724H1.98996V11.1672H10.2219ZM7.86995 7.63924V6.46324H9.04595V7.63924H7.86995ZM5.51795 7.63924V6.46324H6.69395V7.63924H5.51795ZM3.16596 8.81523H4.34196V9.99123H3.16596V8.81523ZM7.86995 9.99123V8.81523H9.04595V9.99123H7.86995ZM5.51795 9.99123V8.81523H6.69395V9.99123H5.51795Z" fill="#2D3748" fill-opacity="0.32"/>
</svg>
